<?xml version="1.0" standalone="no"?>
<!DOCTYPE svg PUBLIC "-//W3C//DTD SVG 20010904//EN"
 "http://www.w3.org/TR/2001/REC-SVG-20010904/DTD/svg10.dtd">
<svg version="1.0" xmlns="http://www.w3.org/2000/svg"
 width="500.000000pt" height="500.000000pt" viewBox="0 0 500.000000 500.000000"
 preserveAspectRatio="xMidYMid meet">
<metadata>
Created by potrace 1.11, written by Peter Selinger 2001-2013
</metadata>
<g transform="translate(0.000000,500.000000) scale(0.100000,-0.100000)"
fill="#000000" stroke="none">
<path d="M393 4989 c-121 -23 -275 -141 -335 -255 -62 -115 -58 27 -58 -2229
1 -1283 5 -2079 11 -2110 31 -163 179 -324 342 -374 47 -14 266 -16 2132 -18
1998 -3 2083 -2 2148 16 175 48 319 201 356 379 8 38 10 640 9 2135 l-3 2082
-24 60 c-43 108 -134 211 -238 267 -111 61 16 58 -2238 57 -1133 -1 -2079 -5
-2102 -10z"/>
</g>
</svg>
